<mxfile host="app.diagrams.net" modified="2023-03-29T05:54:54.968Z" agent="Mozilla/5.0 (Windows NT 10.0; Win64; x64) AppleWebKit/537.36 (KHTML, like Gecko) Chrome/111.0.0.0 Safari/537.36" etag="Qdjk7OvXxXqgaYMlhS2j" version="21.1.1" type="github">
  <diagram id="R2lEEEUBdFMjLlhIrx00" name="Page-1">
    <mxGraphModel dx="2333" dy="1460" grid="1" gridSize="10" guides="1" tooltips="1" connect="1" arrows="1" fold="1" page="1" pageScale="1" pageWidth="850" pageHeight="1100" math="0" shadow="0" extFonts="Permanent Marker^https://fonts.googleapis.com/css?family=Permanent+Marker">
      <root>
        <mxCell id="0" />
        <mxCell id="1" parent="0" />
        <mxCell id="tI17XNyhT9Egs-Wg49mS-49" value="Team" style="shape=table;startSize=30;container=1;collapsible=1;childLayout=tableLayout;fixedRows=1;rowLines=0;fontStyle=1;align=center;resizeLast=1;html=1;" vertex="1" parent="1">
          <mxGeometry x="52" y="10" width="180" height="180" as="geometry" />
        </mxCell>
        <mxCell id="tI17XNyhT9Egs-Wg49mS-50" value="" style="shape=tableRow;horizontal=0;startSize=0;swimlaneHead=0;swimlaneBody=0;fillColor=none;collapsible=0;dropTarget=0;points=[[0,0.5],[1,0.5]];portConstraint=eastwest;top=0;left=0;right=0;bottom=1;" vertex="1" parent="tI17XNyhT9Egs-Wg49mS-49">
          <mxGeometry y="30" width="180" height="30" as="geometry" />
        </mxCell>
        <mxCell id="tI17XNyhT9Egs-Wg49mS-51" value="PK" style="shape=partialRectangle;connectable=0;fillColor=none;top=0;left=0;bottom=0;right=0;fontStyle=1;overflow=hidden;whiteSpace=wrap;html=1;" vertex="1" parent="tI17XNyhT9Egs-Wg49mS-50">
          <mxGeometry width="30" height="30" as="geometry">
            <mxRectangle width="30" height="30" as="alternateBounds" />
          </mxGeometry>
        </mxCell>
        <mxCell id="tI17XNyhT9Egs-Wg49mS-52" value="teamID" style="shape=partialRectangle;connectable=0;fillColor=none;top=0;left=0;bottom=0;right=0;align=left;spacingLeft=6;fontStyle=5;overflow=hidden;whiteSpace=wrap;html=1;" vertex="1" parent="tI17XNyhT9Egs-Wg49mS-50">
          <mxGeometry x="30" width="150" height="30" as="geometry">
            <mxRectangle width="150" height="30" as="alternateBounds" />
          </mxGeometry>
        </mxCell>
        <mxCell id="tI17XNyhT9Egs-Wg49mS-53" value="" style="shape=tableRow;horizontal=0;startSize=0;swimlaneHead=0;swimlaneBody=0;fillColor=none;collapsible=0;dropTarget=0;points=[[0,0.5],[1,0.5]];portConstraint=eastwest;top=0;left=0;right=0;bottom=0;" vertex="1" parent="tI17XNyhT9Egs-Wg49mS-49">
          <mxGeometry y="60" width="180" height="30" as="geometry" />
        </mxCell>
        <mxCell id="tI17XNyhT9Egs-Wg49mS-54" value="" style="shape=partialRectangle;connectable=0;fillColor=none;top=0;left=0;bottom=0;right=0;editable=1;overflow=hidden;whiteSpace=wrap;html=1;" vertex="1" parent="tI17XNyhT9Egs-Wg49mS-53">
          <mxGeometry width="30" height="30" as="geometry">
            <mxRectangle width="30" height="30" as="alternateBounds" />
          </mxGeometry>
        </mxCell>
        <mxCell id="tI17XNyhT9Egs-Wg49mS-55" value="teamName" style="shape=partialRectangle;connectable=0;fillColor=none;top=0;left=0;bottom=0;right=0;align=left;spacingLeft=6;overflow=hidden;whiteSpace=wrap;html=1;" vertex="1" parent="tI17XNyhT9Egs-Wg49mS-53">
          <mxGeometry x="30" width="150" height="30" as="geometry">
            <mxRectangle width="150" height="30" as="alternateBounds" />
          </mxGeometry>
        </mxCell>
        <mxCell id="tI17XNyhT9Egs-Wg49mS-56" value="" style="shape=tableRow;horizontal=0;startSize=0;swimlaneHead=0;swimlaneBody=0;fillColor=none;collapsible=0;dropTarget=0;points=[[0,0.5],[1,0.5]];portConstraint=eastwest;top=0;left=0;right=0;bottom=0;" vertex="1" parent="tI17XNyhT9Egs-Wg49mS-49">
          <mxGeometry y="90" width="180" height="30" as="geometry" />
        </mxCell>
        <mxCell id="tI17XNyhT9Egs-Wg49mS-57" value="" style="shape=partialRectangle;connectable=0;fillColor=none;top=0;left=0;bottom=0;right=0;editable=1;overflow=hidden;whiteSpace=wrap;html=1;" vertex="1" parent="tI17XNyhT9Egs-Wg49mS-56">
          <mxGeometry width="30" height="30" as="geometry">
            <mxRectangle width="30" height="30" as="alternateBounds" />
          </mxGeometry>
        </mxCell>
        <mxCell id="tI17XNyhT9Egs-Wg49mS-58" value="city" style="shape=partialRectangle;connectable=0;fillColor=none;top=0;left=0;bottom=0;right=0;align=left;spacingLeft=6;overflow=hidden;whiteSpace=wrap;html=1;" vertex="1" parent="tI17XNyhT9Egs-Wg49mS-56">
          <mxGeometry x="30" width="150" height="30" as="geometry">
            <mxRectangle width="150" height="30" as="alternateBounds" />
          </mxGeometry>
        </mxCell>
        <mxCell id="tI17XNyhT9Egs-Wg49mS-69" value="" style="shape=tableRow;horizontal=0;startSize=0;swimlaneHead=0;swimlaneBody=0;fillColor=none;collapsible=0;dropTarget=0;points=[[0,0.5],[1,0.5]];portConstraint=eastwest;top=0;left=0;right=0;bottom=0;" vertex="1" parent="tI17XNyhT9Egs-Wg49mS-49">
          <mxGeometry y="120" width="180" height="30" as="geometry" />
        </mxCell>
        <mxCell id="tI17XNyhT9Egs-Wg49mS-70" value="" style="shape=partialRectangle;connectable=0;fillColor=none;top=0;left=0;bottom=0;right=0;editable=1;overflow=hidden;" vertex="1" parent="tI17XNyhT9Egs-Wg49mS-69">
          <mxGeometry width="30" height="30" as="geometry">
            <mxRectangle width="30" height="30" as="alternateBounds" />
          </mxGeometry>
        </mxCell>
        <mxCell id="tI17XNyhT9Egs-Wg49mS-71" value="coach" style="shape=partialRectangle;connectable=0;fillColor=none;top=0;left=0;bottom=0;right=0;align=left;spacingLeft=6;overflow=hidden;" vertex="1" parent="tI17XNyhT9Egs-Wg49mS-69">
          <mxGeometry x="30" width="150" height="30" as="geometry">
            <mxRectangle width="150" height="30" as="alternateBounds" />
          </mxGeometry>
        </mxCell>
        <mxCell id="tI17XNyhT9Egs-Wg49mS-59" value="" style="shape=tableRow;horizontal=0;startSize=0;swimlaneHead=0;swimlaneBody=0;fillColor=none;collapsible=0;dropTarget=0;points=[[0,0.5],[1,0.5]];portConstraint=eastwest;top=0;left=0;right=0;bottom=0;" vertex="1" parent="tI17XNyhT9Egs-Wg49mS-49">
          <mxGeometry y="150" width="180" height="30" as="geometry" />
        </mxCell>
        <mxCell id="tI17XNyhT9Egs-Wg49mS-60" value="" style="shape=partialRectangle;connectable=0;fillColor=none;top=0;left=0;bottom=0;right=0;editable=1;overflow=hidden;whiteSpace=wrap;html=1;" vertex="1" parent="tI17XNyhT9Egs-Wg49mS-59">
          <mxGeometry width="30" height="30" as="geometry">
            <mxRectangle width="30" height="30" as="alternateBounds" />
          </mxGeometry>
        </mxCell>
        <mxCell id="tI17XNyhT9Egs-Wg49mS-61" value="captain" style="shape=partialRectangle;connectable=0;fillColor=none;top=0;left=0;bottom=0;right=0;align=left;spacingLeft=6;overflow=hidden;whiteSpace=wrap;html=1;" vertex="1" parent="tI17XNyhT9Egs-Wg49mS-59">
          <mxGeometry x="30" width="150" height="30" as="geometry">
            <mxRectangle width="150" height="30" as="alternateBounds" />
          </mxGeometry>
        </mxCell>
        <mxCell id="tI17XNyhT9Egs-Wg49mS-72" value="Player" style="shape=table;startSize=30;container=1;collapsible=1;childLayout=tableLayout;fixedRows=1;rowLines=0;fontStyle=1;align=center;resizeLast=1;html=1;" vertex="1" parent="1">
          <mxGeometry x="335" y="10" width="180" height="180" as="geometry" />
        </mxCell>
        <mxCell id="tI17XNyhT9Egs-Wg49mS-73" value="" style="shape=tableRow;horizontal=0;startSize=0;swimlaneHead=0;swimlaneBody=0;fillColor=none;collapsible=0;dropTarget=0;points=[[0,0.5],[1,0.5]];portConstraint=eastwest;top=0;left=0;right=0;bottom=1;" vertex="1" parent="tI17XNyhT9Egs-Wg49mS-72">
          <mxGeometry y="30" width="180" height="30" as="geometry" />
        </mxCell>
        <mxCell id="tI17XNyhT9Egs-Wg49mS-74" value="PK" style="shape=partialRectangle;connectable=0;fillColor=none;top=0;left=0;bottom=0;right=0;fontStyle=1;overflow=hidden;whiteSpace=wrap;html=1;" vertex="1" parent="tI17XNyhT9Egs-Wg49mS-73">
          <mxGeometry width="30" height="30" as="geometry">
            <mxRectangle width="30" height="30" as="alternateBounds" />
          </mxGeometry>
        </mxCell>
        <mxCell id="tI17XNyhT9Egs-Wg49mS-75" value="playerID" style="shape=partialRectangle;connectable=0;fillColor=none;top=0;left=0;bottom=0;right=0;align=left;spacingLeft=6;fontStyle=5;overflow=hidden;whiteSpace=wrap;html=1;" vertex="1" parent="tI17XNyhT9Egs-Wg49mS-73">
          <mxGeometry x="30" width="150" height="30" as="geometry">
            <mxRectangle width="150" height="30" as="alternateBounds" />
          </mxGeometry>
        </mxCell>
        <mxCell id="tI17XNyhT9Egs-Wg49mS-89" value="" style="shape=tableRow;horizontal=0;startSize=0;swimlaneHead=0;swimlaneBody=0;fillColor=none;collapsible=0;dropTarget=0;points=[[0,0.5],[1,0.5]];portConstraint=eastwest;top=0;left=0;right=0;bottom=0;" vertex="1" parent="tI17XNyhT9Egs-Wg49mS-72">
          <mxGeometry y="60" width="180" height="30" as="geometry" />
        </mxCell>
        <mxCell id="tI17XNyhT9Egs-Wg49mS-90" value="FK" style="shape=partialRectangle;connectable=0;fillColor=none;top=0;left=0;bottom=0;right=0;fontStyle=0;overflow=hidden;whiteSpace=wrap;html=1;" vertex="1" parent="tI17XNyhT9Egs-Wg49mS-89">
          <mxGeometry width="30" height="30" as="geometry">
            <mxRectangle width="30" height="30" as="alternateBounds" />
          </mxGeometry>
        </mxCell>
        <mxCell id="tI17XNyhT9Egs-Wg49mS-91" value="teamID" style="shape=partialRectangle;connectable=0;fillColor=none;top=0;left=0;bottom=0;right=0;align=left;spacingLeft=6;fontStyle=0;overflow=hidden;whiteSpace=wrap;html=1;" vertex="1" parent="tI17XNyhT9Egs-Wg49mS-89">
          <mxGeometry x="30" width="150" height="30" as="geometry">
            <mxRectangle width="150" height="30" as="alternateBounds" />
          </mxGeometry>
        </mxCell>
        <mxCell id="tI17XNyhT9Egs-Wg49mS-76" value="" style="shape=tableRow;horizontal=0;startSize=0;swimlaneHead=0;swimlaneBody=0;fillColor=none;collapsible=0;dropTarget=0;points=[[0,0.5],[1,0.5]];portConstraint=eastwest;top=0;left=0;right=0;bottom=0;" vertex="1" parent="tI17XNyhT9Egs-Wg49mS-72">
          <mxGeometry y="90" width="180" height="30" as="geometry" />
        </mxCell>
        <mxCell id="tI17XNyhT9Egs-Wg49mS-77" value="" style="shape=partialRectangle;connectable=0;fillColor=none;top=0;left=0;bottom=0;right=0;editable=1;overflow=hidden;whiteSpace=wrap;html=1;" vertex="1" parent="tI17XNyhT9Egs-Wg49mS-76">
          <mxGeometry width="30" height="30" as="geometry">
            <mxRectangle width="30" height="30" as="alternateBounds" />
          </mxGeometry>
        </mxCell>
        <mxCell id="tI17XNyhT9Egs-Wg49mS-78" value="playerName" style="shape=partialRectangle;connectable=0;fillColor=none;top=0;left=0;bottom=0;right=0;align=left;spacingLeft=6;overflow=hidden;whiteSpace=wrap;html=1;" vertex="1" parent="tI17XNyhT9Egs-Wg49mS-76">
          <mxGeometry x="30" width="150" height="30" as="geometry">
            <mxRectangle width="150" height="30" as="alternateBounds" />
          </mxGeometry>
        </mxCell>
        <mxCell id="tI17XNyhT9Egs-Wg49mS-79" value="" style="shape=tableRow;horizontal=0;startSize=0;swimlaneHead=0;swimlaneBody=0;fillColor=none;collapsible=0;dropTarget=0;points=[[0,0.5],[1,0.5]];portConstraint=eastwest;top=0;left=0;right=0;bottom=0;" vertex="1" parent="tI17XNyhT9Egs-Wg49mS-72">
          <mxGeometry y="120" width="180" height="30" as="geometry" />
        </mxCell>
        <mxCell id="tI17XNyhT9Egs-Wg49mS-80" value="" style="shape=partialRectangle;connectable=0;fillColor=none;top=0;left=0;bottom=0;right=0;editable=1;overflow=hidden;whiteSpace=wrap;html=1;" vertex="1" parent="tI17XNyhT9Egs-Wg49mS-79">
          <mxGeometry width="30" height="30" as="geometry">
            <mxRectangle width="30" height="30" as="alternateBounds" />
          </mxGeometry>
        </mxCell>
        <mxCell id="tI17XNyhT9Egs-Wg49mS-81" value="position" style="shape=partialRectangle;connectable=0;fillColor=none;top=0;left=0;bottom=0;right=0;align=left;spacingLeft=6;overflow=hidden;whiteSpace=wrap;html=1;" vertex="1" parent="tI17XNyhT9Egs-Wg49mS-79">
          <mxGeometry x="30" width="150" height="30" as="geometry">
            <mxRectangle width="150" height="30" as="alternateBounds" />
          </mxGeometry>
        </mxCell>
        <mxCell id="tI17XNyhT9Egs-Wg49mS-82" value="" style="shape=tableRow;horizontal=0;startSize=0;swimlaneHead=0;swimlaneBody=0;fillColor=none;collapsible=0;dropTarget=0;points=[[0,0.5],[1,0.5]];portConstraint=eastwest;top=0;left=0;right=0;bottom=0;" vertex="1" parent="tI17XNyhT9Egs-Wg49mS-72">
          <mxGeometry y="150" width="180" height="30" as="geometry" />
        </mxCell>
        <mxCell id="tI17XNyhT9Egs-Wg49mS-83" value="" style="shape=partialRectangle;connectable=0;fillColor=none;top=0;left=0;bottom=0;right=0;editable=1;overflow=hidden;whiteSpace=wrap;html=1;" vertex="1" parent="tI17XNyhT9Egs-Wg49mS-82">
          <mxGeometry width="30" height="30" as="geometry">
            <mxRectangle width="30" height="30" as="alternateBounds" />
          </mxGeometry>
        </mxCell>
        <mxCell id="tI17XNyhT9Egs-Wg49mS-84" value="skillLevel" style="shape=partialRectangle;connectable=0;fillColor=none;top=0;left=0;bottom=0;right=0;align=left;spacingLeft=6;overflow=hidden;whiteSpace=wrap;html=1;" vertex="1" parent="tI17XNyhT9Egs-Wg49mS-82">
          <mxGeometry x="30" width="150" height="30" as="geometry">
            <mxRectangle width="150" height="30" as="alternateBounds" />
          </mxGeometry>
        </mxCell>
        <mxCell id="tI17XNyhT9Egs-Wg49mS-94" value="InjuryDetails" style="shape=table;startSize=30;container=1;collapsible=1;childLayout=tableLayout;fixedRows=1;rowLines=0;fontStyle=1;align=center;resizeLast=1;html=1;" vertex="1" parent="1">
          <mxGeometry x="335" y="290" width="180" height="120" as="geometry" />
        </mxCell>
        <mxCell id="tI17XNyhT9Egs-Wg49mS-95" value="" style="shape=tableRow;horizontal=0;startSize=0;swimlaneHead=0;swimlaneBody=0;fillColor=none;collapsible=0;dropTarget=0;points=[[0,0.5],[1,0.5]];portConstraint=eastwest;top=0;left=0;right=0;bottom=1;" vertex="1" parent="tI17XNyhT9Egs-Wg49mS-94">
          <mxGeometry y="30" width="180" height="30" as="geometry" />
        </mxCell>
        <mxCell id="tI17XNyhT9Egs-Wg49mS-96" value="&lt;span style=&quot;font-weight: normal;&quot;&gt;FK&lt;/span&gt;" style="shape=partialRectangle;connectable=0;fillColor=none;top=0;left=0;bottom=0;right=0;fontStyle=1;overflow=hidden;whiteSpace=wrap;html=1;" vertex="1" parent="tI17XNyhT9Egs-Wg49mS-95">
          <mxGeometry width="30" height="30" as="geometry">
            <mxRectangle width="30" height="30" as="alternateBounds" />
          </mxGeometry>
        </mxCell>
        <mxCell id="tI17XNyhT9Egs-Wg49mS-97" value="&lt;span style=&quot;font-weight: normal;&quot;&gt;playerID&lt;/span&gt;" style="shape=partialRectangle;connectable=0;fillColor=none;top=0;left=0;bottom=0;right=0;align=left;spacingLeft=6;fontStyle=5;overflow=hidden;whiteSpace=wrap;html=1;" vertex="1" parent="tI17XNyhT9Egs-Wg49mS-95">
          <mxGeometry x="30" width="150" height="30" as="geometry">
            <mxRectangle width="150" height="30" as="alternateBounds" />
          </mxGeometry>
        </mxCell>
        <mxCell id="tI17XNyhT9Egs-Wg49mS-101" value="" style="shape=tableRow;horizontal=0;startSize=0;swimlaneHead=0;swimlaneBody=0;fillColor=none;collapsible=0;dropTarget=0;points=[[0,0.5],[1,0.5]];portConstraint=eastwest;top=0;left=0;right=0;bottom=0;" vertex="1" parent="tI17XNyhT9Egs-Wg49mS-94">
          <mxGeometry y="60" width="180" height="30" as="geometry" />
        </mxCell>
        <mxCell id="tI17XNyhT9Egs-Wg49mS-102" value="" style="shape=partialRectangle;connectable=0;fillColor=none;top=0;left=0;bottom=0;right=0;editable=1;overflow=hidden;whiteSpace=wrap;html=1;" vertex="1" parent="tI17XNyhT9Egs-Wg49mS-101">
          <mxGeometry width="30" height="30" as="geometry">
            <mxRectangle width="30" height="30" as="alternateBounds" />
          </mxGeometry>
        </mxCell>
        <mxCell id="tI17XNyhT9Egs-Wg49mS-103" value="description" style="shape=partialRectangle;connectable=0;fillColor=none;top=0;left=0;bottom=0;right=0;align=left;spacingLeft=6;overflow=hidden;whiteSpace=wrap;html=1;" vertex="1" parent="tI17XNyhT9Egs-Wg49mS-101">
          <mxGeometry x="30" width="150" height="30" as="geometry">
            <mxRectangle width="150" height="30" as="alternateBounds" />
          </mxGeometry>
        </mxCell>
        <mxCell id="tI17XNyhT9Egs-Wg49mS-104" value="" style="shape=tableRow;horizontal=0;startSize=0;swimlaneHead=0;swimlaneBody=0;fillColor=none;collapsible=0;dropTarget=0;points=[[0,0.5],[1,0.5]];portConstraint=eastwest;top=0;left=0;right=0;bottom=0;" vertex="1" parent="tI17XNyhT9Egs-Wg49mS-94">
          <mxGeometry y="90" width="180" height="30" as="geometry" />
        </mxCell>
        <mxCell id="tI17XNyhT9Egs-Wg49mS-105" value="" style="shape=partialRectangle;connectable=0;fillColor=none;top=0;left=0;bottom=0;right=0;editable=1;overflow=hidden;whiteSpace=wrap;html=1;" vertex="1" parent="tI17XNyhT9Egs-Wg49mS-104">
          <mxGeometry width="30" height="30" as="geometry">
            <mxRectangle width="30" height="30" as="alternateBounds" />
          </mxGeometry>
        </mxCell>
        <mxCell id="tI17XNyhT9Egs-Wg49mS-106" value="" style="shape=partialRectangle;connectable=0;fillColor=none;top=0;left=0;bottom=0;right=0;align=left;spacingLeft=6;overflow=hidden;whiteSpace=wrap;html=1;" vertex="1" parent="tI17XNyhT9Egs-Wg49mS-104">
          <mxGeometry x="30" width="150" height="30" as="geometry">
            <mxRectangle width="150" height="30" as="alternateBounds" />
          </mxGeometry>
        </mxCell>
        <mxCell id="tI17XNyhT9Egs-Wg49mS-110" value="Game" style="shape=table;startSize=30;container=1;collapsible=1;childLayout=tableLayout;fixedRows=1;rowLines=0;fontStyle=1;align=center;resizeLast=1;html=1;" vertex="1" parent="1">
          <mxGeometry x="60" y="290" width="180" height="180" as="geometry" />
        </mxCell>
        <mxCell id="tI17XNyhT9Egs-Wg49mS-111" value="" style="shape=tableRow;horizontal=0;startSize=0;swimlaneHead=0;swimlaneBody=0;fillColor=none;collapsible=0;dropTarget=0;points=[[0,0.5],[1,0.5]];portConstraint=eastwest;top=0;left=0;right=0;bottom=1;" vertex="1" parent="tI17XNyhT9Egs-Wg49mS-110">
          <mxGeometry y="30" width="180" height="30" as="geometry" />
        </mxCell>
        <mxCell id="tI17XNyhT9Egs-Wg49mS-112" value="PK" style="shape=partialRectangle;connectable=0;fillColor=none;top=0;left=0;bottom=0;right=0;fontStyle=1;overflow=hidden;whiteSpace=wrap;html=1;" vertex="1" parent="tI17XNyhT9Egs-Wg49mS-111">
          <mxGeometry width="30" height="30" as="geometry">
            <mxRectangle width="30" height="30" as="alternateBounds" />
          </mxGeometry>
        </mxCell>
        <mxCell id="tI17XNyhT9Egs-Wg49mS-113" value="gameID" style="shape=partialRectangle;connectable=0;fillColor=none;top=0;left=0;bottom=0;right=0;align=left;spacingLeft=6;fontStyle=5;overflow=hidden;whiteSpace=wrap;html=1;" vertex="1" parent="tI17XNyhT9Egs-Wg49mS-111">
          <mxGeometry x="30" width="150" height="30" as="geometry">
            <mxRectangle width="150" height="30" as="alternateBounds" />
          </mxGeometry>
        </mxCell>
        <mxCell id="tI17XNyhT9Egs-Wg49mS-129" value="" style="shape=tableRow;horizontal=0;startSize=0;swimlaneHead=0;swimlaneBody=0;fillColor=none;collapsible=0;dropTarget=0;points=[[0,0.5],[1,0.5]];portConstraint=eastwest;top=0;left=0;right=0;bottom=0;" vertex="1" parent="tI17XNyhT9Egs-Wg49mS-110">
          <mxGeometry y="60" width="180" height="30" as="geometry" />
        </mxCell>
        <mxCell id="tI17XNyhT9Egs-Wg49mS-130" value="FK" style="shape=partialRectangle;connectable=0;fillColor=none;top=0;left=0;bottom=0;right=0;fontStyle=0;overflow=hidden;whiteSpace=wrap;html=1;" vertex="1" parent="tI17XNyhT9Egs-Wg49mS-129">
          <mxGeometry width="30" height="30" as="geometry">
            <mxRectangle width="30" height="30" as="alternateBounds" />
          </mxGeometry>
        </mxCell>
        <mxCell id="tI17XNyhT9Egs-Wg49mS-131" value="hostID" style="shape=partialRectangle;connectable=0;fillColor=none;top=0;left=0;bottom=0;right=0;align=left;spacingLeft=6;fontStyle=0;overflow=hidden;whiteSpace=wrap;html=1;" vertex="1" parent="tI17XNyhT9Egs-Wg49mS-129">
          <mxGeometry x="30" width="150" height="30" as="geometry">
            <mxRectangle width="150" height="30" as="alternateBounds" />
          </mxGeometry>
        </mxCell>
        <mxCell id="tI17XNyhT9Egs-Wg49mS-126" value="" style="shape=tableRow;horizontal=0;startSize=0;swimlaneHead=0;swimlaneBody=0;fillColor=none;collapsible=0;dropTarget=0;points=[[0,0.5],[1,0.5]];portConstraint=eastwest;top=0;left=0;right=0;bottom=0;" vertex="1" parent="tI17XNyhT9Egs-Wg49mS-110">
          <mxGeometry y="90" width="180" height="30" as="geometry" />
        </mxCell>
        <mxCell id="tI17XNyhT9Egs-Wg49mS-127" value="FK" style="shape=partialRectangle;connectable=0;fillColor=none;top=0;left=0;bottom=0;right=0;fontStyle=0;overflow=hidden;whiteSpace=wrap;html=1;" vertex="1" parent="tI17XNyhT9Egs-Wg49mS-126">
          <mxGeometry width="30" height="30" as="geometry">
            <mxRectangle width="30" height="30" as="alternateBounds" />
          </mxGeometry>
        </mxCell>
        <mxCell id="tI17XNyhT9Egs-Wg49mS-128" value="guestID" style="shape=partialRectangle;connectable=0;fillColor=none;top=0;left=0;bottom=0;right=0;align=left;spacingLeft=6;fontStyle=0;overflow=hidden;whiteSpace=wrap;html=1;" vertex="1" parent="tI17XNyhT9Egs-Wg49mS-126">
          <mxGeometry x="30" width="150" height="30" as="geometry">
            <mxRectangle width="150" height="30" as="alternateBounds" />
          </mxGeometry>
        </mxCell>
        <mxCell id="tI17XNyhT9Egs-Wg49mS-114" value="" style="shape=tableRow;horizontal=0;startSize=0;swimlaneHead=0;swimlaneBody=0;fillColor=none;collapsible=0;dropTarget=0;points=[[0,0.5],[1,0.5]];portConstraint=eastwest;top=0;left=0;right=0;bottom=0;" vertex="1" parent="tI17XNyhT9Egs-Wg49mS-110">
          <mxGeometry y="120" width="180" height="30" as="geometry" />
        </mxCell>
        <mxCell id="tI17XNyhT9Egs-Wg49mS-115" value="" style="shape=partialRectangle;connectable=0;fillColor=none;top=0;left=0;bottom=0;right=0;editable=1;overflow=hidden;whiteSpace=wrap;html=1;" vertex="1" parent="tI17XNyhT9Egs-Wg49mS-114">
          <mxGeometry width="30" height="30" as="geometry">
            <mxRectangle width="30" height="30" as="alternateBounds" />
          </mxGeometry>
        </mxCell>
        <mxCell id="tI17XNyhT9Egs-Wg49mS-116" value="date" style="shape=partialRectangle;connectable=0;fillColor=none;top=0;left=0;bottom=0;right=0;align=left;spacingLeft=6;overflow=hidden;whiteSpace=wrap;html=1;" vertex="1" parent="tI17XNyhT9Egs-Wg49mS-114">
          <mxGeometry x="30" width="150" height="30" as="geometry">
            <mxRectangle width="150" height="30" as="alternateBounds" />
          </mxGeometry>
        </mxCell>
        <mxCell id="tI17XNyhT9Egs-Wg49mS-117" value="" style="shape=tableRow;horizontal=0;startSize=0;swimlaneHead=0;swimlaneBody=0;fillColor=none;collapsible=0;dropTarget=0;points=[[0,0.5],[1,0.5]];portConstraint=eastwest;top=0;left=0;right=0;bottom=0;" vertex="1" parent="tI17XNyhT9Egs-Wg49mS-110">
          <mxGeometry y="150" width="180" height="30" as="geometry" />
        </mxCell>
        <mxCell id="tI17XNyhT9Egs-Wg49mS-118" value="" style="shape=partialRectangle;connectable=0;fillColor=none;top=0;left=0;bottom=0;right=0;editable=1;overflow=hidden;whiteSpace=wrap;html=1;" vertex="1" parent="tI17XNyhT9Egs-Wg49mS-117">
          <mxGeometry width="30" height="30" as="geometry">
            <mxRectangle width="30" height="30" as="alternateBounds" />
          </mxGeometry>
        </mxCell>
        <mxCell id="tI17XNyhT9Egs-Wg49mS-119" value="Score" style="shape=partialRectangle;connectable=0;fillColor=none;top=0;left=0;bottom=0;right=0;align=left;spacingLeft=6;overflow=hidden;whiteSpace=wrap;html=1;" vertex="1" parent="tI17XNyhT9Egs-Wg49mS-117">
          <mxGeometry x="30" width="150" height="30" as="geometry">
            <mxRectangle width="150" height="30" as="alternateBounds" />
          </mxGeometry>
        </mxCell>
        <mxCell id="tI17XNyhT9Egs-Wg49mS-134" value="" style="fontSize=12;html=1;endArrow=ERoneToMany;startArrow=ERmandOne;rounded=0;entryX=1;entryY=0.5;entryDx=0;entryDy=0;exitX=0;exitY=0.5;exitDx=0;exitDy=0;edgeStyle=orthogonalEdgeStyle;" edge="1" parent="1" source="tI17XNyhT9Egs-Wg49mS-76" target="tI17XNyhT9Egs-Wg49mS-56">
          <mxGeometry width="100" height="100" relative="1" as="geometry">
            <mxPoint x="220" y="220" as="sourcePoint" />
            <mxPoint x="320" y="120" as="targetPoint" />
          </mxGeometry>
        </mxCell>
        <mxCell id="tI17XNyhT9Egs-Wg49mS-135" value="" style="fontSize=12;html=1;endArrow=ERoneToMany;startArrow=ERoneToMany;rounded=0;exitX=0.5;exitY=0;exitDx=0;exitDy=0;edgeStyle=orthogonalEdgeStyle;" edge="1" parent="1" source="tI17XNyhT9Egs-Wg49mS-110">
          <mxGeometry width="100" height="100" relative="1" as="geometry">
            <mxPoint x="90" y="290" as="sourcePoint" />
            <mxPoint x="150" y="190" as="targetPoint" />
          </mxGeometry>
        </mxCell>
        <mxCell id="tI17XNyhT9Egs-Wg49mS-136" value="" style="edgeStyle=orthogonalEdgeStyle;fontSize=12;html=1;endArrow=ERoneToMany;startArrow=ERmandOne;rounded=0;entryX=0.5;entryY=0;entryDx=0;entryDy=0;exitX=0.499;exitY=0.994;exitDx=0;exitDy=0;exitPerimeter=0;" edge="1" parent="1" source="tI17XNyhT9Egs-Wg49mS-82" target="tI17XNyhT9Egs-Wg49mS-94">
          <mxGeometry width="100" height="100" relative="1" as="geometry">
            <mxPoint x="425" y="193" as="sourcePoint" />
            <mxPoint x="390" y="450" as="targetPoint" />
          </mxGeometry>
        </mxCell>
        <mxCell id="tI17XNyhT9Egs-Wg49mS-138" value="Team" style="whiteSpace=wrap;html=1;align=center;" vertex="1" parent="1">
          <mxGeometry x="948" y="140" width="100" height="40" as="geometry" />
        </mxCell>
        <mxCell id="tI17XNyhT9Egs-Wg49mS-143" value="teamID" style="ellipse;whiteSpace=wrap;html=1;align=center;fontStyle=4;" vertex="1" parent="1">
          <mxGeometry x="788" y="180" width="100" height="40" as="geometry" />
        </mxCell>
        <mxCell id="tI17XNyhT9Egs-Wg49mS-145" value="teamName" style="ellipse;whiteSpace=wrap;html=1;align=center;" vertex="1" parent="1">
          <mxGeometry x="788" y="110" width="100" height="40" as="geometry" />
        </mxCell>
        <mxCell id="tI17XNyhT9Egs-Wg49mS-146" value="city" style="ellipse;whiteSpace=wrap;html=1;align=center;" vertex="1" parent="1">
          <mxGeometry x="848" y="50" width="100" height="40" as="geometry" />
        </mxCell>
        <mxCell id="tI17XNyhT9Egs-Wg49mS-147" value="coach" style="ellipse;whiteSpace=wrap;html=1;align=center;" vertex="1" parent="1">
          <mxGeometry x="958" y="40" width="100" height="40" as="geometry" />
        </mxCell>
        <mxCell id="tI17XNyhT9Egs-Wg49mS-149" value="captain" style="ellipse;whiteSpace=wrap;html=1;align=center;" vertex="1" parent="1">
          <mxGeometry x="1068" y="60" width="100" height="40" as="geometry" />
        </mxCell>
        <mxCell id="tI17XNyhT9Egs-Wg49mS-153" value="" style="endArrow=none;html=1;rounded=0;" edge="1" parent="1" source="tI17XNyhT9Egs-Wg49mS-143" target="tI17XNyhT9Egs-Wg49mS-138">
          <mxGeometry width="50" height="50" relative="1" as="geometry">
            <mxPoint x="788" y="60" as="sourcePoint" />
            <mxPoint x="838" y="10" as="targetPoint" />
          </mxGeometry>
        </mxCell>
        <mxCell id="tI17XNyhT9Egs-Wg49mS-155" value="" style="endArrow=none;html=1;rounded=0;" edge="1" parent="1" source="tI17XNyhT9Egs-Wg49mS-145" target="tI17XNyhT9Egs-Wg49mS-138">
          <mxGeometry width="50" height="50" relative="1" as="geometry">
            <mxPoint x="898" y="170" as="sourcePoint" />
            <mxPoint x="958" y="170" as="targetPoint" />
          </mxGeometry>
        </mxCell>
        <mxCell id="tI17XNyhT9Egs-Wg49mS-156" value="" style="endArrow=none;html=1;rounded=0;" edge="1" parent="1" source="tI17XNyhT9Egs-Wg49mS-146" target="tI17XNyhT9Egs-Wg49mS-138">
          <mxGeometry width="50" height="50" relative="1" as="geometry">
            <mxPoint x="938" y="80" as="sourcePoint" />
            <mxPoint x="998" y="120" as="targetPoint" />
          </mxGeometry>
        </mxCell>
        <mxCell id="tI17XNyhT9Egs-Wg49mS-159" value="" style="endArrow=none;html=1;rounded=0;" edge="1" parent="1" source="tI17XNyhT9Egs-Wg49mS-147" target="tI17XNyhT9Egs-Wg49mS-138">
          <mxGeometry width="50" height="50" relative="1" as="geometry">
            <mxPoint x="948" y="90" as="sourcePoint" />
            <mxPoint x="983" y="150" as="targetPoint" />
          </mxGeometry>
        </mxCell>
        <mxCell id="tI17XNyhT9Egs-Wg49mS-160" value="" style="endArrow=none;html=1;rounded=0;" edge="1" parent="1" source="tI17XNyhT9Egs-Wg49mS-149" target="tI17XNyhT9Egs-Wg49mS-138">
          <mxGeometry width="50" height="50" relative="1" as="geometry">
            <mxPoint x="998" y="50" as="sourcePoint" />
            <mxPoint x="1008" y="150" as="targetPoint" />
          </mxGeometry>
        </mxCell>
        <mxCell id="tI17XNyhT9Egs-Wg49mS-165" value="Player" style="whiteSpace=wrap;html=1;align=center;" vertex="1" parent="1">
          <mxGeometry x="1500" y="140" width="100" height="40" as="geometry" />
        </mxCell>
        <mxCell id="tI17XNyhT9Egs-Wg49mS-166" value="playerID" style="ellipse;whiteSpace=wrap;html=1;align=center;fontStyle=4;" vertex="1" parent="1">
          <mxGeometry x="1408" y="50" width="100" height="40" as="geometry" />
        </mxCell>
        <mxCell id="tI17XNyhT9Egs-Wg49mS-168" value="playerName" style="ellipse;whiteSpace=wrap;html=1;align=center;" vertex="1" parent="1">
          <mxGeometry x="1530" y="30" width="100" height="40" as="geometry" />
        </mxCell>
        <mxCell id="tI17XNyhT9Egs-Wg49mS-169" value="position" style="ellipse;whiteSpace=wrap;html=1;align=center;" vertex="1" parent="1">
          <mxGeometry x="1638" y="60" width="100" height="40" as="geometry" />
        </mxCell>
        <mxCell id="tI17XNyhT9Egs-Wg49mS-170" value="skillLevel" style="ellipse;whiteSpace=wrap;html=1;align=center;" vertex="1" parent="1">
          <mxGeometry x="1660" y="140" width="100" height="40" as="geometry" />
        </mxCell>
        <mxCell id="tI17XNyhT9Egs-Wg49mS-171" value="" style="endArrow=none;html=1;rounded=0;" edge="1" parent="1" source="tI17XNyhT9Egs-Wg49mS-166" target="tI17XNyhT9Egs-Wg49mS-165">
          <mxGeometry width="50" height="50" relative="1" as="geometry">
            <mxPoint x="1458" y="270" as="sourcePoint" />
            <mxPoint x="1488" y="230" as="targetPoint" />
          </mxGeometry>
        </mxCell>
        <mxCell id="tI17XNyhT9Egs-Wg49mS-172" value="" style="endArrow=none;html=1;rounded=0;" edge="1" parent="1" source="tI17XNyhT9Egs-Wg49mS-168" target="tI17XNyhT9Egs-Wg49mS-165">
          <mxGeometry width="50" height="50" relative="1" as="geometry">
            <mxPoint x="1468" y="280" as="sourcePoint" />
            <mxPoint x="1498" y="240" as="targetPoint" />
          </mxGeometry>
        </mxCell>
        <mxCell id="tI17XNyhT9Egs-Wg49mS-173" value="" style="endArrow=none;html=1;rounded=0;" edge="1" parent="1" source="tI17XNyhT9Egs-Wg49mS-169" target="tI17XNyhT9Egs-Wg49mS-165">
          <mxGeometry width="50" height="50" relative="1" as="geometry">
            <mxPoint x="1478" y="290" as="sourcePoint" />
            <mxPoint x="1508" y="250" as="targetPoint" />
          </mxGeometry>
        </mxCell>
        <mxCell id="tI17XNyhT9Egs-Wg49mS-174" value="" style="endArrow=none;html=1;rounded=0;" edge="1" parent="1" source="tI17XNyhT9Egs-Wg49mS-170" target="tI17XNyhT9Egs-Wg49mS-165">
          <mxGeometry width="50" height="50" relative="1" as="geometry">
            <mxPoint x="1488" y="300" as="sourcePoint" />
            <mxPoint x="1518" y="260" as="targetPoint" />
          </mxGeometry>
        </mxCell>
        <mxCell id="tI17XNyhT9Egs-Wg49mS-176" value="InjuryDetails" style="shape=ext;margin=3;double=1;whiteSpace=wrap;html=1;align=center;" vertex="1" parent="1">
          <mxGeometry x="1500" y="330" width="100" height="40" as="geometry" />
        </mxCell>
        <mxCell id="tI17XNyhT9Egs-Wg49mS-177" value="has" style="shape=rhombus;perimeter=rhombusPerimeter;whiteSpace=wrap;html=1;align=center;" vertex="1" parent="1">
          <mxGeometry x="1490" y="230" width="120" height="60" as="geometry" />
        </mxCell>
        <mxCell id="tI17XNyhT9Egs-Wg49mS-179" value="PlaysAgainst" style="shape=rhombus;perimeter=rhombusPerimeter;whiteSpace=wrap;html=1;align=center;" vertex="1" parent="1">
          <mxGeometry x="938" y="260" width="120" height="60" as="geometry" />
        </mxCell>
        <mxCell id="tI17XNyhT9Egs-Wg49mS-180" value="" style="endArrow=none;html=1;rounded=0;entryX=0.25;entryY=1;entryDx=0;entryDy=0;exitX=0;exitY=0.5;exitDx=0;exitDy=0;" edge="1" parent="1" source="tI17XNyhT9Egs-Wg49mS-179" target="tI17XNyhT9Egs-Wg49mS-138">
          <mxGeometry relative="1" as="geometry">
            <mxPoint x="938" y="250" as="sourcePoint" />
            <mxPoint x="1098" y="250" as="targetPoint" />
          </mxGeometry>
        </mxCell>
        <mxCell id="tI17XNyhT9Egs-Wg49mS-181" value="1" style="resizable=0;html=1;whiteSpace=wrap;align=right;verticalAlign=bottom;" connectable="0" vertex="1" parent="tI17XNyhT9Egs-Wg49mS-180">
          <mxGeometry x="1" relative="1" as="geometry">
            <mxPoint x="-13" y="30" as="offset" />
          </mxGeometry>
        </mxCell>
        <mxCell id="tI17XNyhT9Egs-Wg49mS-184" value="host" style="edgeLabel;html=1;align=center;verticalAlign=middle;resizable=0;points=[];" vertex="1" connectable="0" parent="tI17XNyhT9Egs-Wg49mS-180">
          <mxGeometry x="0.2993" y="-1" relative="1" as="geometry">
            <mxPoint x="-19" y="11" as="offset" />
          </mxGeometry>
        </mxCell>
        <mxCell id="tI17XNyhT9Egs-Wg49mS-182" value="guest" style="endArrow=none;html=1;rounded=0;entryX=0.75;entryY=1;entryDx=0;entryDy=0;exitX=1;exitY=0.5;exitDx=0;exitDy=0;" edge="1" parent="1" source="tI17XNyhT9Egs-Wg49mS-179" target="tI17XNyhT9Egs-Wg49mS-138">
          <mxGeometry x="-0.0199" y="-20" relative="1" as="geometry">
            <mxPoint x="1012" y="310" as="sourcePoint" />
            <mxPoint x="1009" y="190" as="targetPoint" />
            <mxPoint as="offset" />
          </mxGeometry>
        </mxCell>
        <mxCell id="tI17XNyhT9Egs-Wg49mS-183" value="1" style="resizable=0;html=1;whiteSpace=wrap;align=right;verticalAlign=bottom;" connectable="0" vertex="1" parent="tI17XNyhT9Egs-Wg49mS-182">
          <mxGeometry x="1" relative="1" as="geometry">
            <mxPoint x="25" y="30" as="offset" />
          </mxGeometry>
        </mxCell>
        <mxCell id="tI17XNyhT9Egs-Wg49mS-185" value="date" style="ellipse;whiteSpace=wrap;html=1;align=center;" vertex="1" parent="1">
          <mxGeometry x="948" y="370" width="100" height="40" as="geometry" />
        </mxCell>
        <mxCell id="tI17XNyhT9Egs-Wg49mS-186" value="gameID" style="ellipse;whiteSpace=wrap;html=1;align=center;fontStyle=4;" vertex="1" parent="1">
          <mxGeometry x="820" y="340" width="100" height="40" as="geometry" />
        </mxCell>
        <mxCell id="tI17XNyhT9Egs-Wg49mS-187" value="score" style="ellipse;whiteSpace=wrap;html=1;align=center;" vertex="1" parent="1">
          <mxGeometry x="1058" y="340" width="100" height="40" as="geometry" />
        </mxCell>
        <mxCell id="tI17XNyhT9Egs-Wg49mS-188" value="" style="endArrow=none;html=1;rounded=0;" edge="1" parent="1" source="tI17XNyhT9Egs-Wg49mS-179" target="tI17XNyhT9Egs-Wg49mS-187">
          <mxGeometry width="50" height="50" relative="1" as="geometry">
            <mxPoint x="768" y="500" as="sourcePoint" />
            <mxPoint x="818" y="450" as="targetPoint" />
          </mxGeometry>
        </mxCell>
        <mxCell id="tI17XNyhT9Egs-Wg49mS-189" value="" style="endArrow=none;html=1;rounded=0;" edge="1" parent="1" source="tI17XNyhT9Egs-Wg49mS-179" target="tI17XNyhT9Egs-Wg49mS-185">
          <mxGeometry width="50" height="50" relative="1" as="geometry">
            <mxPoint x="778" y="510" as="sourcePoint" />
            <mxPoint x="828" y="460" as="targetPoint" />
          </mxGeometry>
        </mxCell>
        <mxCell id="tI17XNyhT9Egs-Wg49mS-190" value="" style="endArrow=none;html=1;rounded=0;" edge="1" parent="1" source="tI17XNyhT9Egs-Wg49mS-179" target="tI17XNyhT9Egs-Wg49mS-186">
          <mxGeometry width="50" height="50" relative="1" as="geometry">
            <mxPoint x="788" y="520" as="sourcePoint" />
            <mxPoint x="838" y="470" as="targetPoint" />
          </mxGeometry>
        </mxCell>
        <mxCell id="tI17XNyhT9Egs-Wg49mS-194" value="" style="endArrow=none;html=1;rounded=0;" edge="1" parent="1" source="tI17XNyhT9Egs-Wg49mS-177" target="tI17XNyhT9Egs-Wg49mS-165">
          <mxGeometry relative="1" as="geometry">
            <mxPoint x="1378" y="480" as="sourcePoint" />
            <mxPoint x="1538" y="480" as="targetPoint" />
          </mxGeometry>
        </mxCell>
        <mxCell id="tI17XNyhT9Egs-Wg49mS-195" value="1" style="resizable=0;html=1;whiteSpace=wrap;align=right;verticalAlign=bottom;" connectable="0" vertex="1" parent="tI17XNyhT9Egs-Wg49mS-194">
          <mxGeometry x="1" relative="1" as="geometry">
            <mxPoint y="20" as="offset" />
          </mxGeometry>
        </mxCell>
        <mxCell id="tI17XNyhT9Egs-Wg49mS-196" value="" style="endArrow=none;html=1;rounded=0;" edge="1" parent="1" source="tI17XNyhT9Egs-Wg49mS-177" target="tI17XNyhT9Egs-Wg49mS-176">
          <mxGeometry relative="1" as="geometry">
            <mxPoint x="1478" y="410" as="sourcePoint" />
            <mxPoint x="1638" y="330" as="targetPoint" />
          </mxGeometry>
        </mxCell>
        <mxCell id="tI17XNyhT9Egs-Wg49mS-197" value="N" style="resizable=0;html=1;whiteSpace=wrap;align=right;verticalAlign=bottom;" connectable="0" vertex="1" parent="tI17XNyhT9Egs-Wg49mS-196">
          <mxGeometry x="1" relative="1" as="geometry" />
        </mxCell>
        <mxCell id="tI17XNyhT9Egs-Wg49mS-198" value="playsFor" style="shape=rhombus;perimeter=rhombusPerimeter;whiteSpace=wrap;html=1;align=center;" vertex="1" parent="1">
          <mxGeometry x="1215" y="100" width="120" height="60" as="geometry" />
        </mxCell>
        <mxCell id="tI17XNyhT9Egs-Wg49mS-201" value="" style="shape=link;html=1;rounded=0;" edge="1" parent="1" source="tI17XNyhT9Egs-Wg49mS-198" target="tI17XNyhT9Egs-Wg49mS-138">
          <mxGeometry relative="1" as="geometry">
            <mxPoint x="1058" y="160" as="sourcePoint" />
            <mxPoint x="1218" y="160" as="targetPoint" />
          </mxGeometry>
        </mxCell>
        <mxCell id="tI17XNyhT9Egs-Wg49mS-202" value="1" style="resizable=0;html=1;whiteSpace=wrap;align=right;verticalAlign=bottom;" connectable="0" vertex="1" parent="tI17XNyhT9Egs-Wg49mS-201">
          <mxGeometry x="1" relative="1" as="geometry">
            <mxPoint x="105" y="-10" as="offset" />
          </mxGeometry>
        </mxCell>
        <mxCell id="tI17XNyhT9Egs-Wg49mS-203" value="" style="shape=link;html=1;rounded=0;" edge="1" parent="1" source="tI17XNyhT9Egs-Wg49mS-198" target="tI17XNyhT9Egs-Wg49mS-165">
          <mxGeometry relative="1" as="geometry">
            <mxPoint x="1348" y="190" as="sourcePoint" />
            <mxPoint x="1508" y="190" as="targetPoint" />
          </mxGeometry>
        </mxCell>
        <mxCell id="tI17XNyhT9Egs-Wg49mS-204" value="N" style="resizable=0;html=1;whiteSpace=wrap;align=right;verticalAlign=bottom;" connectable="0" vertex="1" parent="tI17XNyhT9Egs-Wg49mS-203">
          <mxGeometry x="1" relative="1" as="geometry">
            <mxPoint x="-70" y="-10" as="offset" />
          </mxGeometry>
        </mxCell>
        <mxCell id="tI17XNyhT9Egs-Wg49mS-205" value="captain" style="shape=rhombus;perimeter=rhombusPerimeter;whiteSpace=wrap;html=1;align=center;" vertex="1" parent="1">
          <mxGeometry x="1215" y="230" width="120" height="60" as="geometry" />
        </mxCell>
        <mxCell id="tI17XNyhT9Egs-Wg49mS-206" value="" style="shape=link;html=1;rounded=0;" edge="1" parent="1" source="tI17XNyhT9Egs-Wg49mS-205" target="tI17XNyhT9Egs-Wg49mS-138">
          <mxGeometry relative="1" as="geometry">
            <mxPoint x="1078" y="210" as="sourcePoint" />
            <mxPoint x="1238" y="210" as="targetPoint" />
          </mxGeometry>
        </mxCell>
        <mxCell id="tI17XNyhT9Egs-Wg49mS-207" value="1" style="resizable=0;html=1;whiteSpace=wrap;align=right;verticalAlign=bottom;" connectable="0" vertex="1" parent="tI17XNyhT9Egs-Wg49mS-206">
          <mxGeometry x="1" relative="1" as="geometry">
            <mxPoint x="92" y="52" as="offset" />
          </mxGeometry>
        </mxCell>
        <mxCell id="tI17XNyhT9Egs-Wg49mS-210" value="has a" style="edgeLabel;html=1;align=center;verticalAlign=middle;resizable=0;points=[];rotation=0;" vertex="1" connectable="0" parent="tI17XNyhT9Egs-Wg49mS-206">
          <mxGeometry x="0.0724" y="-3" relative="1" as="geometry">
            <mxPoint x="32" as="offset" />
          </mxGeometry>
        </mxCell>
        <mxCell id="tI17XNyhT9Egs-Wg49mS-208" value="is a" style="endArrow=none;html=1;rounded=0;" edge="1" parent="1" source="tI17XNyhT9Egs-Wg49mS-205" target="tI17XNyhT9Egs-Wg49mS-165">
          <mxGeometry x="0.0233" y="-9" relative="1" as="geometry">
            <mxPoint x="1308" y="330" as="sourcePoint" />
            <mxPoint x="1468" y="330" as="targetPoint" />
            <mxPoint as="offset" />
          </mxGeometry>
        </mxCell>
        <mxCell id="tI17XNyhT9Egs-Wg49mS-209" value="1" style="resizable=0;html=1;whiteSpace=wrap;align=right;verticalAlign=bottom;" connectable="0" vertex="1" parent="tI17XNyhT9Egs-Wg49mS-208">
          <mxGeometry x="1" relative="1" as="geometry">
            <mxPoint x="-30" y="32" as="offset" />
          </mxGeometry>
        </mxCell>
        <mxCell id="tI17XNyhT9Egs-Wg49mS-211" value="description" style="ellipse;whiteSpace=wrap;html=1;align=center;" vertex="1" parent="1">
          <mxGeometry x="1650" y="330" width="100" height="40" as="geometry" />
        </mxCell>
        <mxCell id="tI17XNyhT9Egs-Wg49mS-212" value="" style="endArrow=none;html=1;rounded=0;" edge="1" parent="1" source="tI17XNyhT9Egs-Wg49mS-176" target="tI17XNyhT9Egs-Wg49mS-211">
          <mxGeometry width="50" height="50" relative="1" as="geometry">
            <mxPoint x="1590" y="460" as="sourcePoint" />
            <mxPoint x="1640" y="410" as="targetPoint" />
          </mxGeometry>
        </mxCell>
      </root>
    </mxGraphModel>
  </diagram>
</mxfile>
